<?xml version="1.0" encoding="UTF-8" standalone="no"?>
<svg
   xmlns:dc="http://purl.org/dc/elements/1.1/"
   xmlns:cc="http://creativecommons.org/ns#"
   xmlns:rdf="http://www.w3.org/1999/02/22-rdf-syntax-ns#"
   xmlns:svg="http://www.w3.org/2000/svg"
   xmlns="http://www.w3.org/2000/svg"
   xmlns:sodipodi="http://sodipodi.sourceforge.net/DTD/sodipodi-0.dtd"
   xmlns:inkscape="http://www.inkscape.org/namespaces/inkscape"
   aria-hidden="true"
   data-prefix="fas"
   data-icon="video"
   class="svg-inline--fa fa-video fa-w-18"
   role="img"
   viewBox="0 0 21.999999 22"
   version="1.1"
   id="svg4"
   width="22"
   height="22"
   sodipodi:docname="byeads-paused-light.svg"
   inkscape:version="1.0.2 (1.0.2+r75+1)">
  <sodipodi:namedview
     pagecolor="#ffffff"
     bordercolor="#666666"
     borderopacity="1"
     objecttolerance="10"
     gridtolerance="10"
     guidetolerance="10"
     inkscape:pageopacity="0"
     inkscape:pageshadow="2"
     inkscape:window-width="1920"
     inkscape:window-height="1043"
     id="namedview2894"
     showgrid="false"
     inkscape:zoom="12.215488"
     inkscape:cx="33.932332"
     inkscape:cy="1.9920065"
     inkscape:window-x="1920"
     inkscape:window-y="0"
     inkscape:window-maximized="1"
     inkscape:current-layer="svg4"
     inkscape:document-rotation="0" />
  <metadata
     id="metadata10">
    <rdf:RDF>
      <cc:Work
         rdf:about="">
        <dc:format>image/svg+xml</dc:format>
        <dc:type
           rdf:resource="http://purl.org/dc/dcmitype/StillImage" />
        <dc:title />
      </cc:Work>
    </rdf:RDF>
  </metadata>
  <defs
     id="defs8" />
  <path
     id="rect1660"
     style="fill:#7c7c7c;fill-opacity:1;stroke:none;stroke-width:0.022934;stroke-linecap:round"
     d="m 1.8371715,0.50000051 c -0.7407922,0 -1.33717034,0.98679849 -1.33717034,2.21255309 V 19.287448 C 0.50000116,20.513202 1.0963793,21.5 1.8371715,21.5 H 20.162829 c 0.740792,0 1.33717,-0.986798 1.33717,-2.212552 V 2.7125536 c 0,-1.2257546 -0.596378,-2.21255309 -1.33717,-2.21255309 z M 17.086902,3.2238313 c 0.609154,0 1.12731,0.1628689 1.554461,0.4886051 0.430865,0.3257367 0.714997,0.7375175 0.852428,1.2353418 0.141146,0.4916763 0.211719,1.3305767 0.211719,2.5167482 v 0.5900137 h -2.178456 v -1.106276 c 0,-0.5162606 -0.02786,-0.8450429 -0.08357,-0.9863998 -0.05572,-0.1413586 -0.148575,-0.212036 -0.278577,-0.212036 -0.141146,0 -0.248863,0.095262 -0.32315,0.2857879 -0.07057,0.1905239 -0.105859,0.4793579 -0.105859,0.8665532 0,0.4978227 0.04086,0.8727292 0.122574,1.124714 0.078,0.2519842 0.299007,0.5562117 0.663013,0.9126774 1.043734,1.0263766 1.701161,1.8683792 1.972309,2.5259972 0.271148,0.657619 0.406723,1.717803 0.406723,3.180543 0,1.063252 -0.07615,1.846867 -0.228433,2.350836 -0.148575,0.50397 -0.438279,0.928043 -0.869144,1.272218 -0.430865,0.338028 -0.932306,0.507043 -1.504316,0.507043 -0.627726,0 -1.164454,-0.196673 -1.610176,-0.590014 -0.442008,-0.393341 -0.73173,-0.894241 -0.869161,-1.502691 -0.137431,-0.608451 -0.206147,-1.471964 -0.206147,-2.59053 v -0.97721 h 2.178473 v 1.816136 c 0,0.559283 0.02972,0.918824 0.08915,1.078619 0.06314,0.159795 0.172718,0.239693 0.328721,0.239693 0.156003,0 0.271149,-0.101409 0.345436,-0.304226 0.078,-0.202817 0.117002,-0.503971 0.117002,-0.903459 0,-0.878872 -0.07243,-1.453524 -0.21729,-1.723946 -0.148574,-0.270423 -0.51444,-0.722154 -1.097594,-1.355188 -0.583154,-0.63918 -0.969449,-1.103203 -1.158881,-1.392064 -0.189432,-0.28886 -0.347293,-0.6883501 -0.473581,-1.1984655 -0.122574,-0.5101159 -0.183861,-1.1615916 -0.183861,-1.9544208 0,-1.1431491 0.08729,-1.9789772 0.261863,-2.5075295 0.178289,-0.5285539 0.464296,-0.9403364 0.858017,-1.2353418 0.393722,-0.3011529 0.869162,-0.4517291 1.426315,-0.4517291 z M 3.2917796,3.5372764 H 6.6848492 L 8.0275909,18.462753 H 5.6262561 L 5.5092535,15.780034 H 4.6679506 L 4.5286619,18.462753 H 2.0994866 Z m 5.1369624,0 h 1.755036 c 1.132878,0 1.898022,0.086043 2.295458,0.2581306 0.401151,0.1720865 0.705729,0.454802 0.913733,0.8481454 0.208004,0.3933411 0.338007,0.8327808 0.390008,1.3183119 0.052,0.4793846 0.078,1.4258406 0.078,2.839412 V 14.02843 c 0,1.339821 -0.039,2.237137 -0.117003,2.691939 -0.07429,0.448655 -0.206147,0.80205 -0.395579,1.06018 -0.189432,0.251985 -0.423438,0.43022 -0.702014,0.534701 -0.278577,0.09834 -0.698302,0.147503 -1.259169,0.147503 h -2.95847 z m 2.34562,2.5536532 v 9.8181694 c 0.338006,0 0.545993,-0.110627 0.623995,-0.331882 0.078,-0.227401 0.117002,-0.838928 0.117002,-1.834575 V 7.9439127 c 0,-0.6760555 -0.013,-1.1093488 -0.039,-1.2998744 -0.026,-0.1905245 -0.08543,-0.3287806 -0.17829,-0.4148242 C 11.20521,6.1370248 11.030652,6.0909296 10.774362,6.0909296 Z M 5.0858162,6.8745122 C 4.8480976,9.7262409 4.6995225,11.812809 4.640093,13.134191 H 5.4423949 C 5.3235355,11.44405 5.2046755,9.3574824 5.0858162,6.8745122 Z" />
</svg>
